<?xml version="1.0" encoding="UTF-8" standalone="no"?>
<!-- Created with Inkscape (http://www.inkscape.org/) -->

<svg
   width="63.958271mm"
   height="16.93354mm"
   viewBox="0 0 63.958271 16.93354"
   version="1.1"
   id="svg1"
   xml:space="preserve"
   inkscape:version="1.3.2 (091e20e, 2023-11-25, custom)"
   sodipodi:docname="gtecnologia-logo-wt.svg"
   xmlns:inkscape="http://www.inkscape.org/namespaces/inkscape"
   xmlns:sodipodi="http://sodipodi.sourceforge.net/DTD/sodipodi-0.dtd"
   xmlns="http://www.w3.org/2000/svg"
   xmlns:svg="http://www.w3.org/2000/svg"><sodipodi:namedview
     id="namedview1"
     pagecolor="#ffffff"
     bordercolor="#000000"
     borderopacity="0.25"
     inkscape:showpageshadow="2"
     inkscape:pageopacity="0.0"
     inkscape:pagecheckerboard="0"
     inkscape:deskcolor="#d1d1d1"
     inkscape:document-units="mm"
     inkscape:zoom="1.3077309"
     inkscape:cx="112.0261"
     inkscape:cy="-14.911324"
     inkscape:window-width="1366"
     inkscape:window-height="715"
     inkscape:window-x="-8"
     inkscape:window-y="-8"
     inkscape:window-maximized="1"
     inkscape:current-layer="svg1" /><defs
     id="defs1" /><path
     style="fill:#ffffff;stroke-width:0;stroke:none;stroke-dasharray:none;fill-opacity:1;stroke-opacity:1"
     d="m 18.650815,25.964565 -3.408152,-3.26148 -0.02674,-1.96866 c -0.01471,-1.08277 -0.02676,-3.4251 -0.02679,-5.20518 l -4.4e-5,-3.23652 h 6.890343 6.890343 l 0.02614,0.45372 c 0.01438,0.24954 0.02623,1.31107 0.02633,2.35895 l 1.83e-4,1.90524 1.989556,0.0105 1.989555,0.0105 -0.311442,0.66545 -0.311442,0.66545 -1.678114,0.0106 -1.678113,0.0105 v 0.74568 0.74567 h 0.887269 0.88727 v 0.68561 0.68562 h -0.887269 -0.88727 v 0.78607 0.78606 l 1.989556,0.0105 1.989556,0.0105 -0.311438,0.66545 -0.311439,0.66545 -2.353652,0.0202 -2.353653,0.0202 -1.970716,1.76445 c -1.083894,0.97046 -1.991648,1.76446 -2.017232,1.76446 -0.02558,0 -0.695013,-0.6186 -1.487619,-1.37468 l -1.441104,-1.37467 v -4.04978 -4.04977 h -1.613218 -1.613217 v -1.47205 -1.47207 h 4.678331 4.678332 v 1.47207 1.47205 h -1.613218 -1.613218 v 5.04424 5.04422 l 0.116116,-0.0937 c 0.06386,-0.0515 0.925927,-0.81836 1.915696,-1.7041 l 1.79958,-1.61042 v -3.27964 -3.27964 h 0.4638 0.4638 v -2.05685 -2.05686 h -6.311714 -6.311714 l 0.0048,4.66825 c 0.0026,2.56754 0.01624,4.7185 0.03025,4.77991 0.02391,0.10481 0.559915,0.62544 6.044794,5.87147 0.338272,0.32354 0.615039,0.60022 0.615039,0.61484 0,0.0146 -0.09673,0.10923 -0.214966,0.21024 l -0.214966,0.18365 z m 58.194005,2.00831 c -0.0089,-0.0268 0.03493,-0.21192 0.09747,-0.41139 0.06254,-0.19947 0.113705,-0.37719 0.113705,-0.39492 0,-0.0177 -0.12597,-0.0322 -0.279935,-0.0322 -0.153964,0 -0.291425,-0.0186 -0.305473,-0.0413 -0.02735,-0.0443 0.207543,-0.79874 0.269647,-0.86611 0.02046,-0.0222 0.175548,-0.0494 0.344665,-0.0605 l 0.307489,-0.0202 0.12486,-0.37494 c 0.06867,-0.20621 0.151782,-0.39196 0.184692,-0.41277 0.03291,-0.0208 0.282728,-0.0381 0.55515,-0.0384 0.398271,-4.5e-4 0.499758,0.011 0.51799,0.0585 0.01246,0.0325 -0.02439,0.20044 -0.08193,0.37319 -0.05753,0.17276 -0.104603,0.33673 -0.104603,0.36438 0,0.0348 0.07807,0.0503 0.254079,0.0503 0.139746,0 0.273548,0.0195 0.297338,0.0433 0.05254,0.0525 -0.189141,0.83445 -0.274681,0.88864 -0.03021,0.0191 -0.183262,0.0351 -0.340125,0.0354 l -0.285206,6e-4 -0.111381,0.37306 c -0.06126,0.20518 -0.1399,0.40481 -0.174762,0.44363 -0.05408,0.0602 -0.138924,0.0706 -0.578066,0.0706 -0.366358,0 -0.519365,-0.014 -0.530924,-0.0487 z m -49.663901,-0.23145 c 0.01307,-0.0654 0.05071,-0.18333 0.08364,-0.26214 l 0.05987,-0.1433 h 0.507186 c 0.557159,0 0.551491,0.003 0.592164,-0.28511 0.01378,-0.0975 0.01182,-0.0981 -0.387193,-0.10967 -0.220575,-0.006 -0.424748,-0.0313 -0.453717,-0.0554 -0.02897,-0.024 -0.05263,-0.0914 -0.05257,-0.14969 1.68e-4,-0.17271 0.308653,-1.05776 0.400863,-1.15008 0.07957,-0.0797 0.134292,-0.086 0.850303,-0.0977 0.854887,-0.014 0.80427,-0.0357 0.68817,0.29484 l -0.07083,0.20165 -0.516958,0.0202 -0.516959,0.0202 -0.05387,0.15589 c -0.02963,0.0857 -0.04395,0.17195 -0.03182,0.19157 0.01213,0.0196 0.185507,0.0357 0.385292,0.0357 0.398082,0 0.519264,0.0393 0.519264,0.16836 0,0.10209 -0.224657,0.84648 -0.311839,1.03325 -0.105274,0.22554 -0.20437,0.25029 -1.001939,0.25029 h -0.712827 z m 1.911924,0.0903 c -0.0094,-0.0176 0.247665,-0.54918 0.571279,-1.18136 l 0.588389,-1.14942 0.575547,-0.0112 c 0.450502,-0.009 0.580033,4.5e-4 0.596192,0.0426 0.01136,0.0296 -0.04807,0.56094 -0.132058,1.18078 l -0.152703,1.12698 -0.318246,0.0119 -0.318247,0.0119 0.0241,-0.20345 0.0241,-0.20346 h -0.336629 -0.33663 l -0.09502,0.19157 -0.09502,0.19157 -0.288966,0.0118 c -0.158932,0.006 -0.296666,-0.003 -0.306076,-0.0202 z m 1.548961,-1.06037 c 0.06193,-0.29867 0.08617,-0.76628 0.03972,-0.76628 -0.03782,0 -0.48951,0.83864 -0.48951,0.90887 0,0.0126 0.09462,0.0175 0.210258,0.0107 0.2046,-0.0119 0.211046,-0.016 0.239531,-0.15335 z m 0.800455,1.04607 c 0,-0.0754 0.69547,-2.23252 0.737091,-2.28623 0.05981,-0.0772 0.593813,-0.0689 0.593813,0.009 0,0.0328 -0.117966,0.43041 -0.262148,0.88358 -0.144181,0.45317 -0.262147,0.84376 -0.262147,0.86797 0,0.029 0.144381,0.044 0.423469,0.044 0.472897,0 0.457421,-0.0135 0.346318,0.30248 l -0.0709,0.20165 -0.752748,0.011 c -0.529864,0.008 -0.752748,-0.002 -0.752748,-0.0337 z m 1.804619,0.0143 c -0.0094,-0.0176 0.247666,-0.54918 0.57128,-1.18136 l 0.588388,-1.14942 0.575548,-0.0112 c 0.450502,-0.009 0.580033,4.5e-4 0.596191,0.0426 0.01135,0.0296 -0.04807,0.56094 -0.132058,1.18078 l -0.152702,1.12698 -0.318246,0.0119 -0.318247,0.0119 0.0241,-0.20345 0.0241,-0.20346 h -0.33663 -0.336629 l -0.09502,0.19157 -0.09502,0.19157 -0.288966,0.0118 c -0.158932,0.006 -0.296666,-0.003 -0.306076,-0.0202 z m 1.548961,-1.06037 c 0.06194,-0.29866 0.08617,-0.76628 0.03972,-0.76628 -0.03782,0 -0.489511,0.83864 -0.489511,0.90887 0,0.0126 0.09462,0.0175 0.210259,0.0107 0.2046,-0.0119 0.211046,-0.016 0.23953,-0.15335 z m 1.849047,1.04519 c 0,-0.0748 0.695778,-2.23203 0.737091,-2.28535 0.0473,-0.0611 0.697526,-0.0707 0.734485,-0.0109 0.01344,0.0218 0.0514,0.26222 0.08434,0.53438 0.03294,0.27216 0.06402,0.50895 0.06906,0.52622 0.005,0.0173 0.180237,-0.19806 0.389328,-0.47849 0.209091,-0.28043 0.405314,-0.53503 0.436053,-0.56577 0.06012,-0.0601 0.715449,-0.0826 0.748598,-0.0256 0.0097,0.0166 -0.148656,0.54749 -0.351875,1.17967 l -0.369489,1.14942 -0.311197,0.0118 c -0.171159,0.006 -0.311198,-0.004 -0.311198,-0.0239 0,-0.0196 0.03694,-0.14291 0.0821,-0.27392 0.126205,-0.3662 0.275993,-0.86334 0.260126,-0.86334 -0.0078,0 -0.216462,0.26422 -0.463648,0.58715 -0.303336,0.39629 -0.470905,0.58301 -0.515496,0.57442 -0.05337,-0.0103 -0.07885,-0.11948 -0.132566,-0.56822 -0.03657,-0.30553 -0.07427,-0.56328 -0.08376,-0.57278 -0.0095,-0.009 -0.0959,0.22247 -0.192016,0.51546 -0.09611,0.293 -0.192849,0.55541 -0.214967,0.58314 -0.05113,0.0641 -0.594965,0.0702 -0.594965,0.007 z m 2.77255,0.0152 c -0.0094,-0.0176 0.247666,-0.54919 0.571279,-1.18137 l 0.588389,-1.14941 0.575548,-0.0112 c 0.450502,-0.009 0.580033,4.4e-4 0.596191,0.0426 0.01135,0.0296 -0.04807,0.56094 -0.132058,1.18078 l -0.152702,1.12698 -0.318247,0.0119 -0.318246,0.0119 0.0241,-0.20346 0.0241,-0.20345 h -0.33663 -0.33663 l -0.09502,0.19157 -0.09502,0.19157 -0.288966,0.0118 c -0.158932,0.006 -0.296666,-0.003 -0.306076,-0.0202 z m 1.548961,-1.06037 c 0.06194,-0.29867 0.08617,-0.76628 0.03972,-0.76628 -0.03782,0 -0.48951,0.83864 -0.48951,0.90887 0,0.0126 0.09462,0.0175 0.210259,0.0107 0.2046,-0.0119 0.211046,-0.016 0.23953,-0.15334 z m 0.814142,0.97007 c 0.01307,-0.0654 0.05071,-0.18333 0.08364,-0.26215 l 0.05988,-0.1433 h 0.507187 c 0.557159,0 0.55149,0.003 0.592163,-0.2851 0.01378,-0.0975 0.01182,-0.0981 -0.387192,-0.10967 -0.220575,-0.006 -0.424748,-0.0313 -0.453718,-0.0554 -0.02897,-0.024 -0.05263,-0.0914 -0.05257,-0.14968 1.68e-4,-0.17271 0.308654,-1.05776 0.400864,-1.15008 0.07957,-0.0797 0.134291,-0.086 0.850302,-0.0977 0.854888,-0.014 0.804271,-0.0357 0.688171,0.29484 l -0.07083,0.20165 -0.516959,0.0202 -0.516958,0.0202 -0.05387,0.1559 c -0.02963,0.0857 -0.04395,0.17195 -0.03182,0.19157 0.01213,0.0196 0.185507,0.0357 0.385292,0.0357 0.398082,0 0.519264,0.0393 0.519264,0.16835 0,0.1021 -0.224657,0.84648 -0.311839,1.03326 -0.105274,0.22553 -0.20437,0.25029 -1.001939,0.25029 h -0.712826 z m 2.540598,-0.0122 c 0.01321,-0.0721 0.140702,-0.48952 0.283312,-0.9276 l 0.259291,-0.79653 h -0.283312 -0.283312 l 0.02274,-0.1401 c 0.0125,-0.077 0.04687,-0.19049 0.07637,-0.25207 l 0.05363,-0.11196 0.896837,-0.0109 c 0.704773,-0.009 0.896167,1.1e-4 0.893711,0.0403 -0.0017,0.0282 -0.03499,0.14193 -0.07394,0.25284 l -0.07081,0.20165 -0.301889,0.0116 -0.301888,0.0116 -0.274936,0.87563 c -0.151214,0.48159 -0.292844,0.8983 -0.314732,0.92603 -0.02506,0.0317 -0.144439,0.0504 -0.322449,0.0504 h -0.282651 z m 1.47876,0.0873 c 0,-0.0748 0.695777,-2.23203 0.73709,-2.28534 0.02881,-0.0372 0.239694,-0.0504 0.803609,-0.0504 h 0.764544 l -0.02796,0.13108 c -0.01538,0.0721 -0.05219,0.19006 -0.08181,0.26215 l -0.05384,0.13107 h -0.466857 c -0.515665,0 -0.489922,-0.0138 -0.569736,0.30426 l -0.02486,0.099 h 0.453047 0.45305 l -0.02377,0.11885 c -0.01308,0.0654 -0.05071,0.18333 -0.08365,0.26215 l -0.05987,0.1433 h -0.459475 -0.459474 l -0.04671,0.15592 c -0.07594,0.25346 -0.08553,0.24738 0.390198,0.24738 0.240303,0 0.447422,0.0105 0.460267,0.0234 0.02691,0.0269 -0.08257,0.37535 -0.141555,0.45053 -0.0524,0.0668 -1.562233,0.0732 -1.562233,0.007 z m 1.8552,0 c 0,-0.0748 0.695777,-2.23203 0.73709,-2.28534 0.02903,-0.0375 0.255001,-0.0504 0.880136,-0.0504 0.837432,0 0.841339,4.5e-4 0.90294,0.0944 0.05708,0.0871 0.05236,0.12531 -0.0608,0.49292 -0.142288,0.46224 -0.196077,0.55683 -0.366878,0.64516 -0.123927,0.0641 -0.124246,0.0651 -0.03995,0.12412 0.04673,0.0327 0.08497,0.0984 0.08497,0.14589 0,0.11165 -0.19705,0.76075 -0.250923,0.82657 -0.02574,0.0314 -0.145638,0.0504 -0.318643,0.0504 -0.325208,0 -0.319488,0.014 -0.177062,-0.43202 0.05517,-0.17275 0.100543,-0.33754 0.100826,-0.3662 4.46e-4,-0.0391 -0.07659,-0.0492 -0.308774,-0.0403 l -0.30929,0.0118 -0.124262,0.36388 c -0.06835,0.20014 -0.138947,0.38616 -0.156892,0.41339 -0.04187,0.0635 -0.592494,0.0689 -0.592494,0.006 z m 1.723873,-1.4543 c 0.02804,-0.0587 0.06225,-0.16301 0.07603,-0.2319 l 0.02505,-0.12526 h -0.30514 c -0.167826,0 -0.313374,0.0136 -0.323439,0.0302 -0.01006,0.0166 -0.04668,0.12628 -0.08136,0.24365 l -0.06306,0.2134 0.310474,-0.0118 c 0.290757,-0.011 0.313713,-0.0185 0.36145,-0.11838 z m 1.542893,1.4543 c 0,-0.0748 0.695777,-2.23203 0.73709,-2.28534 0.05459,-0.0705 1.685023,-0.0723 1.755331,-0.002 0.08707,0.0871 0.05183,0.27821 -0.19511,1.058 -0.344727,1.0886 -0.352606,1.10755 -0.497163,1.1957 -0.113737,0.0694 -0.210474,0.0771 -0.963292,0.0773 -0.574556,10e-5 -0.836856,-0.0136 -0.836856,-0.0436 z m 1.621642,-1.10568 c 0.105948,-0.33272 0.192766,-0.6284 0.19293,-0.65706 1.53e-4,-0.0391 -0.07714,-0.0492 -0.310385,-0.0403 l -0.310683,0.0118 -0.192763,0.60495 c -0.106018,0.33273 -0.19307,0.62841 -0.193448,0.65707 -4.45e-4,0.0392 0.0767,0.0492 0.310516,0.0403 l 0.311201,-0.0118 z m 0.596532,1.10568 c 0,-0.0748 0.695779,-2.23203 0.737092,-2.28534 0.02881,-0.0372 0.239693,-0.0504 0.803608,-0.0504 h 0.764545 l -0.02797,0.13108 c -0.01538,0.0721 -0.05219,0.19006 -0.08181,0.26215 l -0.05384,0.13107 h -0.466856 c -0.515664,0 -0.489923,-0.0138 -0.569737,0.30426 l -0.02486,0.099 h 0.453048 0.453048 l -0.02377,0.11885 c -0.01308,0.0654 -0.05071,0.18333 -0.08365,0.26215 l -0.05987,0.1433 H 54.49954 54.040066 l -0.04671,0.15592 c -0.07594,0.25346 -0.08553,0.24738 0.390199,0.24738 0.240303,0 0.447422,0.0105 0.460266,0.0234 0.02691,0.0269 -0.08257,0.37535 -0.141555,0.45053 -0.0524,0.0668 -1.562233,0.0732 -1.562233,0.007 z m 2.95781,-0.0751 c 0.01308,-0.0654 0.05071,-0.18333 0.08364,-0.26215 l 0.05988,-0.1433 h 0.507186 c 0.557159,0 0.55149,0.003 0.592163,-0.2851 0.01378,-0.0975 0.01183,-0.0981 -0.387192,-0.10967 -0.220575,-0.006 -0.424748,-0.0313 -0.453717,-0.0554 -0.02897,-0.0241 -0.05263,-0.0914 -0.05257,-0.14969 1.53e-4,-0.17271 0.308655,-1.05776 0.400864,-1.15008 0.07958,-0.0797 0.134291,-0.086 0.850302,-0.0977 0.854888,-0.014 0.804271,-0.0357 0.688171,0.29484 l -0.07083,0.20165 -0.516959,0.0202 -0.516959,0.0202 -0.05387,0.1559 c -0.02963,0.0857 -0.04395,0.17195 -0.03183,0.19157 0.01213,0.0196 0.185507,0.0357 0.385292,0.0357 0.398082,0 0.519264,0.0393 0.519264,0.16836 0,0.10209 -0.224656,0.84648 -0.311838,1.03325 -0.105275,0.22553 -0.204371,0.25029 -1.00194,0.25029 h -0.712826 z m 1.922174,0.0751 c 0,-0.0748 0.695778,-2.23203 0.737091,-2.28534 0.02881,-0.0372 0.239693,-0.0504 0.803608,-0.0504 h 0.764545 l -0.02797,0.13108 c -0.01538,0.0721 -0.05219,0.19006 -0.08181,0.26215 l -0.05384,0.13107 h -0.466857 c -0.515665,0 -0.489922,-0.0138 -0.569736,0.30426 l -0.02486,0.099 h 0.453048 0.453049 l -0.02377,0.11885 c -0.01308,0.0654 -0.05071,0.18333 -0.08364,0.26215 l -0.05987,0.1433 H 59.379535 58.92006 l -0.04671,0.15592 c -0.07594,0.25346 -0.08553,0.24738 0.390198,0.24738 0.240303,0 0.447421,0.0105 0.460267,0.0234 0.02691,0.0269 -0.08257,0.37535 -0.141556,0.45053 -0.0524,0.0668 -1.562232,0.0732 -1.562232,0.007 z m 1.89553,0 c 0,-0.0748 0.695779,-2.23203 0.737092,-2.28534 0.02904,-0.0375 0.254999,-0.0504 0.880134,-0.0504 0.837434,0 0.841339,4.5e-4 0.902941,0.0944 0.05707,0.0871 0.05236,0.12531 -0.0608,0.49292 -0.142287,0.46224 -0.196076,0.55683 -0.366879,0.64516 -0.123925,0.0641 -0.124246,0.0651 -0.03995,0.12412 0.04673,0.0327 0.08497,0.0984 0.08497,0.14589 0,0.11165 -0.197049,0.76075 -0.250923,0.82657 -0.02574,0.0314 -0.145637,0.0504 -0.318641,0.0504 -0.325208,0 -0.31949,0.014 -0.177064,-0.43202 0.05517,-0.17275 0.100543,-0.33754 0.100826,-0.3662 4.46e-4,-0.0391 -0.07658,-0.0492 -0.308774,-0.0403 l -0.30929,0.0118 -0.124262,0.36388 c -0.06835,0.20014 -0.138946,0.38616 -0.156892,0.41339 -0.04187,0.0635 -0.592494,0.0689 -0.592494,0.006 z m 1.723874,-1.4543 c 0.02804,-0.0587 0.06225,-0.16301 0.07603,-0.2319 l 0.02505,-0.12526 h -0.305139 c -0.167827,0 -0.313375,0.0136 -0.32344,0.0302 -0.01006,0.0166 -0.04668,0.12628 -0.08136,0.24365 l -0.06306,0.2134 0.310475,-0.0118 c 0.290756,-0.011 0.313712,-0.0185 0.361448,-0.11838 z m 0.837333,1.44763 c -0.0096,-0.0277 0.05013,-0.55858 0.132687,-1.17967 l 0.1501,-1.12925 0.312211,-0.0118 c 0.28199,-0.0106 0.312214,-0.004 0.312214,0.0634 0,0.0414 -0.04537,0.4229 -0.100827,0.84785 -0.111582,0.85507 -0.119547,0.97062 -0.06296,0.91336 0.02083,-0.0211 0.24332,-0.43759 0.494432,-0.92559 l 0.456566,-0.88727 0.312178,-0.0118 c 0.171699,-0.006 0.31218,-0.002 0.31218,0.0104 0,0.0491 -1.101856,2.2246 -1.159915,2.29016 -0.05365,0.0606 -0.138887,0.0706 -0.601977,0.0706 -0.395408,0 -0.544125,-0.0135 -0.556886,-0.0504 z m 1.875142,0.008 c 0,-0.0759 0.695192,-2.23297 0.737091,-2.28704 0.03822,-0.0493 0.556115,-0.0747 0.601349,-0.0294 0.01154,0.0115 -0.146234,0.54238 -0.350602,1.17966 l -0.371578,1.15869 -0.30813,0.0118 c -0.208575,0.008 -0.30813,-0.003 -0.30813,-0.0337 z m 0.927601,-0.002 c 0,-0.0748 0.695778,-2.23203 0.737091,-2.28535 0.05459,-0.0704 1.685021,-0.0723 1.755332,-0.002 0.08707,0.0871 0.05182,0.27821 -0.195111,1.05801 -0.344729,1.0886 -0.352606,1.10755 -0.497165,1.19569 -0.113738,0.0694 -0.210474,0.0771 -0.963291,0.0772 -0.574558,1.1e-4 -0.836856,-0.0135 -0.836856,-0.0436 z m 1.621642,-1.10568 c 0.105946,-0.33273 0.192766,-0.62841 0.192929,-0.65707 1.53e-4,-0.0391 -0.07714,-0.0492 -0.310384,-0.0403 l -0.310684,0.0118 -0.192762,0.60496 c -0.106019,0.33273 -0.193071,0.62841 -0.193447,0.65707 -4.46e-4,0.0392 0.0767,0.0492 0.310515,0.0403 l 0.311201,-0.0118 z m 0.65668,1.05372 c -0.05912,-0.0902 -0.04524,-0.15066 0.243281,-1.05867 0.168294,-0.52964 0.333156,-1.00463 0.366363,-1.05553 0.03321,-0.0509 0.10598,-0.10988 0.161718,-0.13107 0.05574,-0.0212 0.435493,-0.0385 0.843899,-0.0385 1.008558,0 0.961505,-0.0968 0.561573,1.15513 -0.169059,0.52922 -0.334145,1.00386 -0.366856,1.05476 -0.03271,0.0509 -0.105078,0.10988 -0.160818,0.13108 -0.05574,0.0212 -0.435493,0.0385 -0.843899,0.0385 -0.736944,0 -0.743032,-7.6e-4 -0.805261,-0.0957 z m 1.521163,-1.05372 c 0.105949,-0.33273 0.192768,-0.62841 0.192931,-0.65707 1.52e-4,-0.0391 -0.07724,-0.0492 -0.310903,-0.0403 l -0.311203,0.0118 -0.192629,0.60496 c -0.105949,0.33273 -0.192768,0.62841 -0.192931,0.65707 -1.52e-4,0.0391 0.07723,0.0492 0.310903,0.0403 l 0.3112,-0.0118 z m 0.596532,1.10568 c 0,-0.0748 0.695779,-2.23203 0.73709,-2.28535 0.02904,-0.0375 0.255001,-0.0504 0.880136,-0.0504 0.837434,0 0.841339,4.5e-4 0.902942,0.0944 0.05707,0.0871 0.05236,0.12531 -0.0608,0.49293 -0.142287,0.46224 -0.196075,0.55683 -0.366877,0.64515 -0.123926,0.0641 -0.124246,0.0651 -0.03995,0.12412 0.04673,0.0327 0.08497,0.0984 0.08497,0.14589 0,0.11166 -0.197049,0.76076 -0.250922,0.82657 -0.02573,0.0314 -0.145637,0.0504 -0.318644,0.0504 -0.325206,0 -0.319488,0.0139 -0.177062,-0.43202 0.05517,-0.17275 0.100543,-0.33755 0.100826,-0.36621 5.25e-4,-0.0391 -0.07658,-0.0492 -0.308773,-0.0403 l -0.30929,0.0118 -0.124262,0.36388 c -0.06835,0.20013 -0.138946,0.38615 -0.156892,0.41338 -0.04187,0.0635 -0.592495,0.0689 -0.592495,0.006 z m 1.723875,-1.4543 c 0.02804,-0.0587 0.06225,-0.16301 0.07603,-0.2319 l 0.02505,-0.12526 h -0.305138 c -0.167827,0 -0.313374,0.0136 -0.323438,0.0302 -0.01007,0.0166 -0.04668,0.12628 -0.08136,0.24365 l -0.06306,0.2134 0.310473,-0.0117 c 0.290756,-0.011 0.313713,-0.0185 0.36145,-0.11839 z m 0.453969,1.4543 c 0,-0.0748 0.695779,-2.23203 0.737091,-2.28535 0.02882,-0.0372 0.239695,-0.0504 0.803611,-0.0504 h 0.764544 l -0.02796,0.13107 c -0.01537,0.0721 -0.05219,0.19006 -0.08181,0.26215 l -0.05384,0.13108 h -0.466856 c -0.515664,0 -0.489923,-0.0138 -0.569736,0.30425 l -0.02487,0.099 h 0.453049 0.453049 l -0.02376,0.11885 c -0.01309,0.0654 -0.05071,0.18333 -0.08365,0.26215 l -0.05987,0.1433 h -0.459475 -0.459472 l -0.04671,0.15591 c -0.07594,0.25347 -0.08553,0.24739 0.3902,0.24739 0.240302,0 0.44742,0.0105 0.460265,0.0234 0.02691,0.0269 -0.08257,0.37535 -0.141556,0.45053 -0.0524,0.0668 -1.562233,0.0732 -1.562233,0.007 z m 1.909218,-0.0751 c 0.01309,-0.0654 0.05072,-0.18333 0.08365,-0.26215 l 0.05987,-0.1433 h 0.507186 c 0.557159,0 0.551491,0.003 0.592162,-0.2851 0.01377,-0.0975 0.0118,-0.0981 -0.387191,-0.10968 -0.220575,-0.006 -0.424748,-0.0313 -0.453718,-0.0554 -0.02897,-0.024 -0.05262,-0.0914 -0.05257,-0.14968 1.52e-4,-0.17271 0.308653,-1.05777 0.400862,-1.15008 0.07957,-0.0797 0.13429,-0.0859 0.850302,-0.0977 0.854888,-0.014 0.80427,-0.0357 0.68817,0.29484 l -0.07083,0.20165 -0.516957,0.0202 -0.51696,0.0202 -0.05387,0.1559 c -0.02963,0.0857 -0.04395,0.17195 -0.03183,0.19157 0.01212,0.0196 0.185508,0.0357 0.385293,0.0357 0.398082,0 0.519265,0.0393 0.519265,0.16835 0,0.1021 -0.224658,0.84648 -0.31184,1.03326 -0.105274,0.22553 -0.204369,0.25028 -1.00194,0.25028 h -0.712825 z m -40.061817,-7.14031 v -3.58972 h 2.760681 2.76068 l -0.204191,0.43355 c -0.112305,0.23846 -0.255855,0.54699 -0.319001,0.68562 l -0.114811,0.25207 h -1.675401 -1.6754 v 2.21779 2.2178 l 1.990965,0.0105 1.990965,0.0105 -0.313059,0.66545 -0.313058,0.66545 -2.444185,0.0104 -2.444185,0.0104 z m 6.089897,-0.001 v -3.59028 l 0.771377,0.011 0.771376,0.011 1.214898,2.19255 1.214898,2.19256 0.01043,-2.20264 0.01043,-2.20264 h 0.765934 0.765934 v 3.59028 3.59028 l -0.771089,-0.011 -0.771088,-0.011 -1.215186,-2.17162 -1.215185,-2.17163 -0.01043,2.18171 -0.01043,2.18171 h -0.765934 -0.765931 z m 6.089897,9.2e-4 v -3.58944 h 2.762635 2.762636 v 3.58941 3.58941 h -2.762636 -2.762635 z m 3.992714,0 v -2.21818 h -1.230079 -1.230078 v 2.21818 2.21817 h 1.230078 1.230079 z m 2.097184,3.1e-4 v -3.58972 h 0.766278 0.766277 v 2.90341 2.90342 l 1.989557,0.0105 1.989556,0.0104 -0.311446,0.66546 -0.311448,0.66545 -2.444388,0.0104 -2.444386,0.0104 z m 6.089896,-3.1e-4 v -3.58942 h 2.762636 2.762635 v 3.58942 3.58941 h -2.762635 -2.762636 z m 3.992714,0 v -2.21818 h -1.230078 -1.230079 v 2.21818 2.21817 h 1.230079 1.230078 z m 2.056853,0 v -3.58942 h 2.76068 2.760679 l -0.204189,0.43356 c -0.112304,0.23845 -0.255856,0.54698 -0.319003,0.68561 l -0.114809,0.25207 h -1.6754 -1.675401 v 2.21818 2.21817 h 1.230078 1.230077 v -0.78573 -0.78572 l -0.961146,-0.0108 -0.961146,-0.0108 0.311456,-0.66546 0.311457,-0.66545 1.415969,-0.0106 1.41597,-0.0106 v 2.15819 2.1582 h -2.762637 -2.762635 z m 6.573861,1.02842 v -2.56098 h 0.766279 0.766278 v 2.56098 2.56099 h -0.766278 -0.766279 z m 2.596019,2.49096 c 0.01136,-0.0391 0.331456,-1.5321 0.711322,-3.31773 0.379863,-1.78563 0.718148,-3.36911 0.751745,-3.51883 l 0.06109,-0.27224 h 1.223613 1.223613 l 0.06108,0.27224 c 0.0336,0.14972 0.371885,1.7332 0.751751,3.51883 0.379863,1.78563 0.699878,3.27836 0.711144,3.31718 0.01899,0.0655 -0.03509,0.0706 -0.745657,0.0706 h -0.766137 l -0.04244,-0.21174 c -0.02334,-0.11645 -0.260666,-1.38233 -0.527391,-2.81305 -0.266725,-1.43072 -0.494271,-2.64215 -0.505654,-2.69205 -0.0166,-0.0728 -0.04851,-0.0907 -0.161084,-0.0907 -0.07721,0 -0.141104,0.005 -0.141977,0.0101 -7.87e-4,0.006 -0.187685,0.99919 -0.415131,2.2081 l -0.413542,2.19801 0.731031,0.0202 0.731031,0.0202 -0.311496,0.66545 -0.311493,0.66545 -1.318039,0.0106 c -1.242926,0.01 -1.316862,0.007 -1.297381,-0.0605 z m -2.489058,-6.00892 c 0.0572,-0.15021 0.172674,-0.45459 0.256611,-0.6764 l 0.152616,-0.40331 0.768852,-0.0109 0.768849,-0.0109 -0.103994,0.27309 c -0.0572,0.1502 -0.172674,0.45458 -0.256614,0.6764 l -0.152616,0.4033 -0.768849,0.0109 -0.768852,0.0109 z m -36.011302,-1.8266 c -0.438731,-0.11118 -0.767364,-0.39476 -0.916083,-0.79048 -0.07753,-0.20629 -0.08716,-0.29757 -0.07393,-0.70098 0.01185,-0.36171 0.03384,-0.50483 0.09988,-0.65022 0.126225,-0.27788 0.342425,-0.49286 0.627673,-0.62415 0.227569,-0.10474 0.294415,-0.11621 0.676011,-0.11604 0.768089,2.7e-4 1.189749,0.26312 1.309022,0.8157 l 0.02829,0.13108 H 36.150076 35.76985 l -0.0637,-0.16216 c -0.08036,-0.20459 -0.276791,-0.29895 -0.564705,-0.27129 -0.150509,0.0145 -0.225739,0.0485 -0.329724,0.14932 -0.184855,0.17917 -0.236259,0.39336 -0.217302,0.90547 0.01692,0.45709 0.05429,0.55029 0.291602,0.72724 0.08869,0.0661 0.171537,0.0832 0.404709,0.0832 0.380207,0 0.426554,-0.0378 0.426554,-0.34775 v -0.23704 h -0.262148 -0.262148 v -0.22182 -0.22182 h 0.665452 0.665452 v 0.60326 0.60326 l -0.171404,0.0991 c -0.09427,0.0545 -0.271222,0.12916 -0.393222,0.16594 -0.262011,0.079 -0.964383,0.11485 -1.17983,0.0603 z m 19.372143,-0.0204 c -0.271512,-0.0762 -0.443939,-0.18102 -0.61124,-0.37157 -0.216157,-0.24618 -0.290607,-0.4665 -0.311182,-0.92087 -0.03537,-0.78117 0.190202,-1.20821 0.780203,-1.47698 0.264114,-0.12031 0.897564,-0.1309 1.21457,-0.0203 0.376234,0.13127 0.739237,0.54739 0.739237,0.84742 v 0.10825 l -0.373058,-1.5e-4 -0.373055,-1.5e-4 -0.0605,-0.1878 c -0.08173,-0.25373 -0.248458,-0.34716 -0.580703,-0.32544 -0.20591,0.0135 -0.253091,0.0326 -0.350913,0.14203 -0.06216,0.0696 -0.133915,0.20411 -0.15946,0.29897 -0.0685,0.25439 -0.03271,0.98321 0.05738,1.16855 0.202869,0.41735 0.959876,0.35206 1.048373,-0.0904 l 0.02364,-0.1182 h 0.384148 c 0.374139,0 0.384148,0.002 0.384148,0.0929 0,0.15334 -0.195815,0.49802 -0.349542,0.61527 -0.341137,0.2602 -1.001255,0.36793 -1.462046,0.2386 z M 37.93546,14.853265 v -1.43173 h 1.149418 1.149417 v 0.26215 0.26215 h -0.746113 -0.746113 v 0.30248 0.30247 h 0.625122 0.625122 v 0.26215 0.26215 h -0.625122 -0.625122 v 0.34281 0.34281 h 0.746113 0.746113 v 0.26215 0.26214 H 39.084878 37.93546 Z m 3.58941,-0.004 v -1.43562 l 0.897352,0.0153 c 0.834901,0.0143 0.912064,0.0219 1.10875,0.10954 0.257049,0.11455 0.480204,0.35109 0.517185,0.54822 0.04163,0.22192 -0.0022,0.53801 -0.09135,0.65852 -0.04389,0.0593 -0.154213,0.16235 -0.24515,0.22889 -0.09094,0.0666 -0.166427,0.13914 -0.167754,0.16132 -0.0013,0.0222 0.142752,0.28206 0.320179,0.57749 0.177426,0.29544 0.322593,0.5456 0.322593,0.55591 0,0.0103 -0.19323,0.0136 -0.4294,0.007 l -0.429399,-0.0114 -0.285939,-0.49405 -0.285939,-0.49405 h -0.212262 -0.212262 v 0.50413 0.50413 H 41.92817 41.524866 Z m 1.57153,-0.15673 c 0.155624,-0.0805 0.226341,-0.29177 0.162447,-0.48537 -0.06587,-0.19959 -0.208469,-0.26145 -0.602722,-0.26145 h -0.324647 v 0.40331 0.4033 h 0.324647 c 0.208001,0 0.366191,-0.0215 0.440275,-0.0598 z m 2.421183,0.16062 v -1.43173 h 1.149418 1.149417 v 0.26215 0.26214 h -0.746113 -0.746113 v 0.30248 0.30248 h 0.625122 0.625121 v 0.26215 0.26215 h -0.625121 -0.625122 v 0.34281 0.34281 h 0.746113 0.746113 v 0.26214 0.26215 h -1.149417 -1.149418 z m 3.54908,-10e-4 v -1.43314 l 0.407235,0.0115 0.407235,0.0115 0.539854,0.82409 c 0.29692,0.45324 0.558307,0.84253 0.58086,0.86508 0.02779,0.0278 0.04101,-0.24109 0.04101,-0.83416 v -0.87517 h 0.383139 0.383139 v 1.43173 1.43173 h -0.385211 -0.385212 l -0.572636,-0.87298 -0.572636,-0.87299 -0.01087,0.87299 -0.01087,0.87298 h -0.402517 -0.402518 z m 8.348402,10e-4 v -1.43173 h 0.383139 0.383138 v 1.43173 1.43173 h -0.383138 -0.383139 z m 2.057043,1.42165 c 1.05e-4,-0.006 0.268748,-0.64529 0.596984,-1.42165 l 0.596793,-1.41157 0.381029,-0.0104 0.381029,-0.0104 0.574125,1.36144 c 0.315768,0.74879 0.585403,1.39319 0.599189,1.43201 0.02285,0.0643 -0.01249,0.0706 -0.399433,0.0706 h -0.424496 l -0.08724,-0.26215 -0.08724,-0.26215 h -0.561337 c -0.332754,0 -0.561339,0.0158 -0.561339,0.0388 0,0.0213 -0.0376,0.13932 -0.08356,0.26215 l -0.08356,0.22333 h -0.420573 c -0.231314,0 -0.420485,-0.005 -0.42038,-0.0101 z m 1.763292,-1.52105 c -0.09308,-0.2654 -0.182265,-0.46953 -0.198182,-0.45361 -0.01592,0.0159 -0.09934,0.23307 -0.185379,0.48255 l -0.156439,0.4536 h 0.35462 0.35462 z m 4.729718,0.0994 v -1.43929 l 0.758421,0.0138 0.758423,0.0138 0.308157,0.15237 c 0.360102,0.17805 0.554914,0.38222 0.6789,0.71154 0.07063,0.1876 0.08221,0.29206 0.06963,0.62832 -0.01322,0.35353 -0.0296,0.42978 -0.132648,0.61781 -0.147383,0.26894 -0.327449,0.42827 -0.664435,0.58796 -0.261597,0.12397 -0.271102,0.12526 -1.020254,0.13899 l -0.756196,0.0138 z m 1.487745,0.78963 c 0.207643,-0.14785 0.285023,-0.36223 0.285023,-0.78963 0,-0.62806 -0.179119,-0.86196 -0.687965,-0.89837 l -0.278194,-0.0199 v 0.91741 0.9174 l 0.273133,-0.0154 c 0.206206,-0.0116 0.30618,-0.039 0.408003,-0.11147 z m 2.504968,-0.78963 v -1.43173 h 1.149418 1.149418 v 0.26215 0.26214 H 71.510553 70.76444 v 0.30248 0.30248 h 0.625122 0.625122 v 0.26215 0.26215 H 71.389562 70.76444 v 0.34281 0.34281 h 0.746113 0.746114 v 0.26214 0.26215 h -1.149418 -1.149418 z"
     id="path1"
     inkscape:label="Logo"
     transform="translate(-15.189089,-12.292725)" /></svg>
